<svg width="33" height="33" viewBox="0 0 33 33" fill="none" xmlns="http://www.w3.org/2000/svg">
<g clip-path="url(#clip0_801_130)" filter="url(#filter0_d_801_130)">
<path d="M28.779 8.55431C28.6018 8.34503 28.3415 8.22438 28.0672 8.22438H25.4778L20.3925 1.29779C20.0875 0.882065 19.5038 0.793441 19.0887 1.09784C18.6733 1.40287 18.584 1.98685 18.8887 2.40194L23.1635 8.22443H9.58787L13.8626 2.40194C14.1676 1.98651 14.0778 1.40287 13.6626 1.09784C13.2475 0.7931 12.6636 0.882651 12.3585 1.29779L7.27316 8.22443H4.93282C4.65855 8.22443 4.39829 8.34508 4.22105 8.55436C4.0438 8.76364 3.96763 9.04006 4.0127 9.31056L6.34479 23.3032C6.41974 23.7528 6.80905 24.0827 7.26486 24.0827H25.7351C26.1912 24.0827 26.5803 23.7531 26.6552 23.3032L28.9873 9.31056C29.0324 9.04035 28.9562 8.76359 28.779 8.55431ZM24.945 22.217H8.05505L6.0339 10.0901H26.9662L24.945 22.217Z" fill="#111111"/>
<path d="M16.5004 12.2668C15.9852 12.2668 15.5676 12.6844 15.5676 13.1997V19.3254C15.5676 19.8406 15.9852 20.2582 16.5004 20.2582C17.0157 20.2582 17.4333 19.8409 17.4333 19.3253V13.1997C17.4333 12.6844 17.0157 12.2668 16.5004 12.2668Z" fill="#111111"/>
<path d="M21.3195 12.2668C20.8043 12.2668 20.3867 12.6844 20.3867 13.1997V19.3254C20.3867 19.8406 20.8043 20.2582 21.3195 20.2582C21.8348 20.2582 22.2524 19.8409 22.2524 19.3253V13.1997C22.2524 12.6844 21.8348 12.2668 21.3195 12.2668Z" fill="#111111"/>
<path d="M11.6804 12.2668C11.1651 12.2668 10.7476 12.6844 10.7476 13.1997V19.3254C10.7476 19.8406 11.1651 20.2582 11.6804 20.2582C12.1956 20.2582 12.6132 19.8409 12.6132 19.3253V13.1997C12.6132 12.6844 12.1956 12.2668 11.6804 12.2668Z" fill="#111111"/>
</g>
<defs>
<filter id="filter0_d_801_130" x="0" y="0" width="33" height="33" filterUnits="userSpaceOnUse" color-interpolation-filters="sRGB">
<feFlood flood-opacity="0" result="BackgroundImageFix"/>
<feColorMatrix in="SourceAlpha" type="matrix" values="0 0 0 0 0 0 0 0 0 0 0 0 0 0 0 0 0 0 127 0" result="hardAlpha"/>
<feOffset dy="4"/>
<feGaussianBlur stdDeviation="2"/>
<feComposite in2="hardAlpha" operator="out"/>
<feColorMatrix type="matrix" values="0 0 0 0 0 0 0 0 0 0 0 0 0 0 0 0 0 0 0.25 0"/>
<feBlend mode="normal" in2="BackgroundImageFix" result="effect1_dropShadow_801_130"/>
<feBlend mode="normal" in="SourceGraphic" in2="effect1_dropShadow_801_130" result="shape"/>
</filter>
<clipPath id="clip0_801_130">
<rect width="25" height="25" fill="white" transform="translate(4)"/>
</clipPath>
</defs>
</svg>
