<svg width="25" height="22" viewBox="0 0 25 22" fill="none" xmlns="http://www.w3.org/2000/svg">
<path d="M12.5 -0.000488281C5.59158 -0.000488281 0 3.59014 0 10.4995C0 12.692 0.571823 13.8334 1.65768 15.722L0.0471115 20.7235C-0.0652314 21.0722 0.0270844 21.4544 0.286102 21.7134C0.542641 21.9699 0.92392 22.0657 1.27602 21.9524L6.27747 19.3418C8.16612 20.4277 10.3075 20.9995 12.5 20.9995C19.4084 20.9995 25 17.4089 25 10.4995C25 3.59109 19.4094 -0.000488281 12.5 -0.000488281ZM12.5 19.0464C10.5196 19.0464 8.58917 18.4938 6.91738 17.4484C6.67686 17.2981 6.37817 17.2575 6.10027 17.3469L2.48985 19.5097L3.65257 15.8992C3.74069 15.6253 3.7035 15.3263 3.55091 15.0821C2.50568 13.4103 1.95312 12.4799 1.95312 10.4995C1.95312 4.68401 6.68449 1.95264 12.5 1.95264C18.3155 1.95264 23.0469 4.68401 23.0469 10.4995C23.0469 16.315 18.3155 19.0464 12.5 19.0464ZM13.7207 9.49951C13.7207 10.1736 13.1742 10.7202 12.5 10.7202C11.8258 10.7202 11.2793 10.1736 11.2793 9.49951C11.2793 8.82526 11.8258 8.27881 12.5 8.27881C13.1742 8.27881 13.7207 8.82526 13.7207 9.49951ZM18.6035 9.49951C18.6035 10.1736 18.0571 10.7202 17.3828 10.7202C16.7086 10.7202 16.1621 10.1736 16.1621 9.49951C16.1621 8.82526 16.7086 8.27881 17.3828 8.27881C18.0571 8.27881 18.6035 8.82526 18.6035 9.49951ZM8.83789 9.49951C8.83789 10.1736 8.29144 10.7202 7.61719 10.7202C6.94313 10.7202 6.39648 10.1736 6.39648 9.49951C6.39648 8.82526 6.94313 8.27881 7.61719 8.27881C8.29144 8.27881 8.83789 8.82526 8.83789 9.49951Z" fill="#BCBCBC"/>
</svg>
