<svg width="30" height="29" viewBox="0 0 30 29" fill="none" xmlns="http://www.w3.org/2000/svg">
<g filter="url(#filter0_d_801_475)">
<path d="M25.4649 19.3339L20.6945 14.7709C22.042 13.2085 22.7743 11.2647 22.7743 9.2174C22.7743 6.87994 21.8254 4.68754 20.0966 3.03391C18.3721 1.38029 16.0757 0.472656 13.6364 0.472656C11.197 0.472656 8.90061 1.38029 7.17182 3.03391C5.44303 4.68339 4.49414 6.87994 4.49414 9.2174C4.49414 11.5507 5.44303 13.7473 7.17182 15.4009C8.89628 17.0504 11.1927 17.9621 13.6364 17.9621C15.7811 17.9621 17.8132 17.2617 19.4423 15.9728L24.2128 20.5317C24.5594 20.8632 25.1183 20.8632 25.4649 20.5317C25.8116 20.2001 25.8116 19.6655 25.4649 19.3339ZM8.424 14.199C7.02883 12.8686 6.26193 11.099 6.26193 9.2174C6.26193 7.33583 7.02883 5.56201 8.41967 4.23165C9.8105 2.90129 11.6606 2.16773 13.632 2.16773C15.5991 2.16773 17.4536 2.90129 18.8444 4.23165C20.2352 5.56201 21.0021 7.33168 21.0021 9.2174C21.0021 11.099 20.2352 12.8728 18.8444 14.2031C17.4536 15.5335 15.5991 16.2671 13.632 16.2671C11.6649 16.2671 9.81483 15.5335 8.424 14.199Z" fill="#8D8D8D"/>
<path d="M25.4649 19.3339L20.6945 14.7709C22.042 13.2085 22.7743 11.2647 22.7743 9.2174C22.7743 6.87994 21.8254 4.68754 20.0966 3.03391C18.3721 1.38029 16.0757 0.472656 13.6364 0.472656C11.197 0.472656 8.90061 1.38029 7.17182 3.03391C5.44303 4.68339 4.49414 6.87994 4.49414 9.2174C4.49414 11.5507 5.44303 13.7473 7.17182 15.4009C8.89628 17.0504 11.1927 17.9621 13.6364 17.9621C15.7811 17.9621 17.8132 17.2617 19.4423 15.9728L24.2128 20.5317C24.5594 20.8632 25.1183 20.8632 25.4649 20.5317C25.8116 20.2001 25.8116 19.6655 25.4649 19.3339ZM8.424 14.199C7.02883 12.8686 6.26193 11.099 6.26193 9.2174C6.26193 7.33583 7.02883 5.56201 8.41967 4.23165C9.8105 2.90129 11.6606 2.16773 13.632 2.16773C15.5991 2.16773 17.4536 2.90129 18.8444 4.23165C20.2352 5.56201 21.0021 7.33168 21.0021 9.2174C21.0021 11.099 20.2352 12.8728 18.8444 14.2031C17.4536 15.5335 15.5991 16.2671 13.632 16.2671C11.6649 16.2671 9.81483 15.5335 8.424 14.199Z" fill="white" fill-opacity="0.3"/>
</g>
<defs>
<filter id="filter0_d_801_475" x="0.494141" y="0.472656" width="29.231" height="28.3076" filterUnits="userSpaceOnUse" color-interpolation-filters="sRGB">
<feFlood flood-opacity="0" result="BackgroundImageFix"/>
<feColorMatrix in="SourceAlpha" type="matrix" values="0 0 0 0 0 0 0 0 0 0 0 0 0 0 0 0 0 0 127 0" result="hardAlpha"/>
<feOffset dy="4"/>
<feGaussianBlur stdDeviation="2"/>
<feComposite in2="hardAlpha" operator="out"/>
<feColorMatrix type="matrix" values="0 0 0 0 0 0 0 0 0 0 0 0 0 0 0 0 0 0 0.25 0"/>
<feBlend mode="normal" in2="BackgroundImageFix" result="effect1_dropShadow_801_475"/>
<feBlend mode="normal" in="SourceGraphic" in2="effect1_dropShadow_801_475" result="shape"/>
</filter>
</defs>
</svg>
