<svg width="23" height="23" viewBox="0 0 23 23" fill="none" xmlns="http://www.w3.org/2000/svg">
<path d="M22.3982 21.0916L17.4204 16.1137C18.8265 14.4093 19.5905 12.2888 19.5905 10.0553C19.5905 7.50539 18.6004 5.11368 16.7964 3.30972C14.997 1.50577 12.6008 0.515625 10.0553 0.515625C7.50991 0.515625 5.11368 1.50577 3.30972 3.30972C1.50577 5.10916 0.515625 7.50539 0.515625 10.0553C0.515625 12.6008 1.50577 14.997 3.30972 16.801C5.10916 18.6004 7.50539 19.5951 10.0553 19.5951C12.2933 19.5951 14.4138 18.831 16.1137 17.4249L21.0916 22.3982C21.4533 22.7599 22.0365 22.7599 22.3982 22.3982C22.7599 22.0365 22.7599 21.4533 22.3982 21.0916ZM4.61635 15.4898C3.16052 14.0385 2.36027 12.108 2.36027 10.0553C2.36027 8.00272 3.16052 6.06765 4.61183 4.61635C6.06313 3.16504 7.99368 2.36479 10.0508 2.36479C12.1034 2.36479 14.0385 3.16504 15.4898 4.61635C16.9411 6.06765 17.7414 7.9982 17.7414 10.0553C17.7414 12.108 16.9411 14.043 15.4898 15.4943C14.0385 16.9456 12.1034 17.7459 10.0508 17.7459C7.9982 17.7459 6.06765 16.9456 4.61635 15.4898Z" fill="#111111"/>
</svg>
