<svg width="41" height="42" viewBox="0 0 41 42" fill="none" xmlns="http://www.w3.org/2000/svg">
<g clip-path="url(#clip0_801_18)">
<path d="M40.9984 20.7183C40.9984 27.5587 35.5318 33.1494 28.6984 33.1494C21.9302 33.1494 16.3984 27.5587 16.3984 20.7183C16.3984 13.8779 21.8651 8.28712 28.6334 8.28712C35.5318 8.28712 40.9984 13.8779 40.9984 20.7183Z" fill="#FFB600"/>
<path d="M28.6984 8.28712C35.4667 8.28712 40.9984 13.8779 40.9984 20.7183C40.9984 27.5587 35.5318 33.1494 28.6984 33.1494C21.9302 33.1494 16.3984 27.5587 16.3984 20.7183" fill="#F7981D"/>
<path d="M28.7002 8.28737C35.4685 8.28737 41.0002 13.8781 41.0002 20.7185C41.0002 27.5589 35.5335 33.1497 28.7002 33.1497" fill="#FF8500"/>
<path d="M12.1698 8.28737C5.46667 8.35314 0 13.8781 0 20.7185C0 27.5589 5.46667 33.1497 12.3 33.1497C15.4889 33.1497 18.3524 31.9 20.5651 29.9268C21.0206 29.5321 21.4111 29.0717 21.8016 28.6113H19.2635C18.9381 28.2167 18.6127 27.7562 18.3524 27.3616H22.7127C22.973 26.967 23.2333 26.5066 23.4286 26.0461H17.6365C17.4413 25.6515 17.246 25.1911 17.1159 24.7307H23.8841C24.2746 23.481 24.5349 22.1655 24.5349 20.7843C24.5349 19.8635 24.4048 19.0084 24.2746 18.1534H16.7254C16.7905 17.6929 16.9206 17.2983 17.0508 16.8379H23.819C23.6889 16.3775 23.4936 15.9171 23.2984 15.5224H17.5714C17.7667 15.062 18.027 14.6674 18.2873 14.207H22.6476C22.3873 13.7465 22.0619 13.2861 21.6714 12.8915H19.2635C19.654 12.4311 20.0444 12.0364 20.5 11.6418C18.3524 9.60283 15.4238 8.41892 12.2349 8.41892C12.2349 8.28737 12.2349 8.28737 12.1698 8.28737Z" fill="#FF5050"/>
<path d="M0 20.7186C0 27.559 5.46667 33.1497 12.3 33.1497C15.4889 33.1497 18.3524 31.9 20.5651 29.9268C21.0206 29.5322 21.4111 29.0718 21.8016 28.6114H19.2635C18.9381 28.2167 18.6127 27.7563 18.3524 27.3617H22.7127C22.973 26.967 23.2333 26.5066 23.4286 26.0462H17.6365C17.4413 25.6516 17.246 25.1912 17.1159 24.7308H23.8841C24.2746 23.4811 24.5349 22.1656 24.5349 20.7844C24.5349 19.8635 24.4048 19.0085 24.2746 18.1534H16.7254C16.7905 17.693 16.9206 17.2984 17.0508 16.838H23.819C23.6889 16.3776 23.4936 15.9171 23.2984 15.5225H17.5714C17.7667 15.0621 18.027 14.6674 18.2873 14.207H22.6476C22.3873 13.7466 22.0619 13.2862 21.6714 12.8916H19.2635C19.654 12.4312 20.0444 12.0365 20.5 11.6419C18.3524 9.60291 15.4238 8.41899 12.2349 8.41899H12.1698" fill="#E52836"/>
<path d="M12.2981 33.1496C15.487 33.1496 18.3505 31.8999 20.5632 29.9267C21.0188 29.5321 21.4092 29.0717 21.7997 28.6113H19.2616C18.9362 28.2166 18.6108 27.7562 18.3505 27.3616H22.7108C22.9711 26.9669 23.2315 26.5065 23.4267 26.0461H17.6346C17.4394 25.6515 17.2442 25.1911 17.114 24.7306H23.8823C24.2727 23.481 24.533 22.1655 24.533 20.7843C24.533 19.8634 24.4029 19.0084 24.2727 18.1533H16.7235C16.7886 17.6929 16.9188 17.2983 17.0489 16.8379H23.8172C23.687 16.3774 23.4918 15.917 23.2965 15.5224H17.5696C17.7648 15.062 18.0251 14.6673 18.2854 14.2069H22.6457C22.3854 13.7465 22.06 13.2861 21.6696 12.8915H19.2616C19.6521 12.4311 20.0426 12.0364 20.4981 11.6418C18.3505 9.6028 15.4219 8.41888 12.233 8.41888H12.168" fill="#CB2026"/>
<path d="M16.6607 23.8757L16.856 22.7576C16.7909 22.7576 16.6607 22.8234 16.5306 22.8234C16.075 22.8234 16.0099 22.5603 16.075 22.4287L16.4655 20.1267H17.1814L17.3766 18.877H16.7258L16.856 18.0877H15.5544C15.5544 18.0877 14.7734 22.4287 14.7734 22.9549C14.7734 23.7442 15.229 24.0731 15.8147 24.0731C16.2052 24.0731 16.5306 23.9415 16.6607 23.8757Z" fill="white"/>
<path d="M17.1172 21.7709C17.1172 23.6125 18.3537 24.0729 19.395 24.0729C20.3712 24.0729 20.7616 23.8756 20.7616 23.8756L21.0219 22.6259C21.0219 22.6259 20.3061 22.9548 19.6553 22.9548C18.2235 22.9548 18.4839 21.9024 18.4839 21.9024H21.1521C21.1521 21.9024 21.3473 21.0474 21.3473 20.7185C21.3473 19.8635 20.8918 18.8111 19.46 18.8111C18.0934 18.6795 17.1172 20.1266 17.1172 21.7709ZM19.395 19.8635C20.1108 19.8635 19.9807 20.7185 19.9807 20.7843H18.5489C18.5489 20.7185 18.6791 19.8635 19.395 19.8635Z" fill="white"/>
<path d="M27.6575 23.8755L27.9178 22.4285C27.9178 22.4285 27.267 22.7574 26.8115 22.7574C25.9003 22.7574 25.5099 22.0339 25.5099 21.2446C25.5099 19.666 26.2908 18.811 27.2019 18.811C27.8527 18.811 28.3734 19.2056 28.3734 19.2056L28.5686 17.8244C28.5686 17.8244 27.7876 17.4955 27.0718 17.4955C25.5749 17.4955 24.0781 18.811 24.0781 21.3104C24.0781 22.9547 24.8591 24.0728 26.421 24.0728C26.9416 24.0728 27.6575 23.8755 27.6575 23.8755Z" fill="white"/>
<path d="M9.50036 18.6789C8.58925 18.6789 7.93846 18.942 7.93846 18.942L7.74322 20.0601C7.74322 20.0601 8.32893 19.797 9.17496 19.797C9.63052 19.797 10.021 19.8628 10.021 20.2575C10.021 20.5205 9.95592 20.5863 9.95592 20.5863C9.95592 20.5863 9.56544 20.5863 9.3702 20.5863C8.26385 20.5863 7.02734 21.0467 7.02734 22.5595C7.02734 23.7434 7.8083 24.0065 8.26385 24.0065C9.17496 24.0065 9.56544 23.4146 9.63052 23.4146L9.56544 23.9408H10.7369L11.2575 20.3232C11.2575 18.7447 9.95592 18.6789 9.50036 18.6789ZM9.76068 21.6387C9.76068 21.836 9.63052 22.8884 8.84957 22.8884C8.45909 22.8884 8.32893 22.5595 8.32893 22.3622C8.32893 22.0333 8.52417 21.5729 9.50036 21.5729C9.6956 21.6387 9.76068 21.6387 9.76068 21.6387Z" fill="white"/>
<path d="M12.4968 24.0072C12.8222 24.0072 14.4492 24.0729 14.4492 22.2971C14.4492 20.6527 12.8873 20.9816 12.8873 20.3239C12.8873 19.995 13.1476 19.8634 13.6032 19.8634C13.7984 19.8634 14.5143 19.9292 14.5143 19.9292L14.7095 18.7453C14.7095 18.7453 14.254 18.6138 13.473 18.6138C12.4968 18.6138 11.5206 19.0084 11.5206 20.3239C11.5206 21.8366 13.1476 21.7051 13.1476 22.2971C13.1476 22.6917 12.6921 22.7575 12.3667 22.7575C11.781 22.7575 11.1952 22.5601 11.1952 22.5601L11 23.7441C11.0651 23.8756 11.3905 24.0072 12.4968 24.0072Z" fill="white"/>
<path d="M38.4634 17.627L38.2031 19.4029C38.2031 19.4029 37.6825 18.7451 36.9666 18.7451C35.7952 18.7451 34.7539 20.1921 34.7539 21.9022C34.7539 22.9546 35.2745 24.0728 36.3809 24.0728C37.1618 24.0728 37.6174 23.5466 37.6174 23.5466L37.5523 24.007H38.8539L39.8301 17.6928L38.4634 17.627ZM37.8777 21.113C37.8777 21.8365 37.5523 22.7573 36.8364 22.7573C36.3809 22.7573 36.1206 22.3627 36.1206 21.7049C36.1206 20.6525 36.5761 19.9948 37.1618 19.9948C37.6174 19.9948 37.8777 20.3237 37.8777 21.113Z" fill="white"/>
<path d="M2.40838 23.9412L3.18934 19.2055L3.31949 23.9412H4.2306L5.92267 19.2055L5.20679 23.9412H6.57346L7.61473 17.627H5.46711L4.16553 21.5076L4.10045 17.627H2.21314L1.17188 23.9412H2.40838Z" fill="white"/>
<path d="M22.5831 23.9417C22.9736 21.7712 23.0387 19.9953 23.9498 20.3241C24.0799 19.4691 24.2752 19.1402 24.4053 18.8114C24.4053 18.8114 24.3403 18.8114 24.145 18.8114C23.5593 18.8114 23.1037 19.6006 23.1037 19.6006L23.2339 18.8771H21.9974L21.1514 24.0074H22.5831V23.9417Z" fill="white"/>
<path d="M30.6532 18.6791C29.7421 18.6791 29.0913 18.9422 29.0913 18.9422L28.8961 20.0603C28.8961 20.0603 29.4818 19.7973 30.3278 19.7973C30.7834 19.7973 31.1738 19.863 31.1738 20.2577C31.1738 20.5208 31.1088 20.5865 31.1088 20.5865C31.1088 20.5865 30.7183 20.5865 30.523 20.5865C29.4167 20.5865 28.1802 21.0469 28.1802 22.5597C28.1802 23.7436 28.9611 24.0067 29.4167 24.0067C30.3278 24.0067 30.7183 23.4148 30.7834 23.4148L30.7183 23.941H31.8897L32.4103 20.3234C32.4754 18.7449 31.1088 18.6791 30.6532 18.6791ZM30.9786 21.6389C30.9786 21.8362 30.8484 22.8886 30.0675 22.8886C29.677 22.8886 29.5468 22.5597 29.5468 22.3624C29.5468 22.0335 29.7421 21.5731 30.7183 21.5731C30.9135 21.6389 30.9135 21.6389 30.9786 21.6389Z" fill="white"/>
<path d="M33.5167 23.9417C33.9072 21.7712 33.9723 19.9953 34.8834 20.3241C35.0135 19.4691 35.2088 19.1402 35.3389 18.8114C35.3389 18.8114 35.2738 18.8114 35.0786 18.8114C34.4929 18.8114 34.0373 19.6006 34.0373 19.6006L34.1675 18.8771H32.931L32.085 24.0074H33.5167V23.9417Z" fill="white"/>
<path d="M14.6445 22.9549C14.6445 23.7442 15.1001 24.0731 15.6858 24.0731C16.1414 24.0731 16.5318 23.9415 16.662 23.8757L16.8572 22.7576C16.7922 22.7576 16.662 22.8234 16.5318 22.8234C16.0763 22.8234 16.0112 22.5603 16.0763 22.4287L16.4668 20.1267H17.1826L17.3779 18.877H16.7271L16.8572 18.0877" fill="#DCE5E5"/>
<path d="M17.7656 21.7709C17.7656 23.6125 18.3513 24.0729 19.3926 24.0729C20.3688 24.0729 20.7593 23.8756 20.7593 23.8756L21.0196 22.6259C21.0196 22.6259 20.3037 22.9548 19.6529 22.9548C18.2212 22.9548 18.4815 21.9024 18.4815 21.9024H21.1498C21.1498 21.9024 21.345 21.0474 21.345 20.7185C21.345 19.8635 20.8894 18.8111 19.4577 18.8111C18.091 18.6795 17.7656 20.1266 17.7656 21.7709ZM19.3926 19.8635C20.1085 19.8635 20.2386 20.7185 20.2386 20.7843H18.5466C18.5466 20.7185 18.6767 19.8635 19.3926 19.8635Z" fill="#DCE5E5"/>
<path d="M27.6595 23.8755L27.9198 22.4285C27.9198 22.4285 27.2691 22.7574 26.8135 22.7574C25.9024 22.7574 25.5119 22.0339 25.5119 21.2446C25.5119 19.666 26.2929 18.811 27.204 18.811C27.8548 18.811 28.3754 19.2056 28.3754 19.2056L28.5706 17.8244C28.5706 17.8244 27.7897 17.4955 27.0738 17.4955C25.577 17.4955 24.731 18.811 24.731 21.3104C24.731 22.9547 24.8611 24.0728 26.423 24.0728C26.9437 24.0728 27.6595 23.8755 27.6595 23.8755Z" fill="#DCE5E5"/>
<path d="M7.74322 20.1266C7.74322 20.1266 8.32893 19.8635 9.17496 19.8635C9.63052 19.8635 10.021 19.9293 10.021 20.3239C10.021 20.587 9.95592 20.6528 9.95592 20.6528C9.95592 20.6528 9.56544 20.6528 9.3702 20.6528C8.26385 20.6528 7.02734 21.1132 7.02734 22.626C7.02734 23.8099 7.8083 24.073 8.26385 24.073C9.17496 24.073 9.56544 23.4811 9.63052 23.4811L9.56544 24.0072H10.7369L11.2575 20.3897C11.2575 18.8769 9.95592 18.8112 9.43528 18.8112L7.74322 20.1266ZM10.4115 21.6394C10.4115 21.8367 9.63052 22.8891 8.84957 22.8891C8.45909 22.8891 8.32893 22.5602 8.32893 22.3629C8.32893 22.034 8.52417 21.5736 9.50036 21.5736C9.6956 21.6394 10.4115 21.6394 10.4115 21.6394Z" fill="#DCE5E5"/>
<path d="M11.0625 23.8756C11.0625 23.8756 11.453 24.0072 12.5593 24.0072C12.8847 24.0072 14.5117 24.0729 14.5117 22.2971C14.5117 20.6527 12.9498 20.9816 12.9498 20.3239C12.9498 19.995 13.2101 19.8634 13.6657 19.8634C13.8609 19.8634 14.5768 19.9292 14.5768 19.9292L14.772 18.7453C14.772 18.7453 14.3165 18.6138 13.5355 18.6138C12.5593 18.6138 12.2339 19.0084 12.2339 20.3239C12.2339 21.8366 13.2101 21.7051 13.2101 22.2971C13.2101 22.6917 12.7546 22.7575 12.4292 22.7575" fill="#DCE5E5"/>
<path d="M38.2016 19.4035C38.2016 19.4035 37.6809 18.7458 36.9651 18.7458C35.7936 18.7458 35.4032 20.1928 35.4032 21.9029C35.4032 22.9553 35.273 24.0734 36.3794 24.0734C37.1603 24.0734 37.6159 23.5472 37.6159 23.5472L37.5508 24.0076H38.8524L39.8286 17.6934L38.2016 19.4035ZM38.1365 21.1136C38.1365 21.8371 37.5508 22.7579 36.8349 22.7579C36.3793 22.7579 36.119 22.3633 36.119 21.7056C36.119 20.6532 36.5746 19.9955 37.1603 19.9955C37.6159 19.9955 38.1365 20.3243 38.1365 21.1136Z" fill="#DCE5E5"/>
<path d="M2.40838 23.9412L3.18934 19.2055L3.31949 23.9412H4.2306L5.92267 19.2055L5.20679 23.9412H6.57346L7.61473 17.627H5.98775L4.16553 21.5076L4.10045 17.627H3.38457L1.17188 23.9412H2.40838Z" fill="#DCE5E5"/>
<path d="M21.2153 23.9417H22.582C22.9725 21.7711 23.0376 19.9953 23.9487 20.3241C24.0788 19.4691 24.2741 19.1402 24.4042 18.8114C24.4042 18.8114 24.3391 18.8114 24.1439 18.8114C23.5582 18.8114 23.1026 19.6006 23.1026 19.6006L23.2328 18.8771" fill="#DCE5E5"/>
<path d="M28.8961 20.1268C28.8961 20.1268 29.4818 19.8637 30.3278 19.8637C30.7833 19.8637 31.1738 19.9295 31.1738 20.3241C31.1738 20.5872 31.1087 20.653 31.1087 20.653C31.1087 20.653 30.7183 20.653 30.523 20.653C29.4167 20.653 28.1802 21.1134 28.1802 22.6262C28.1802 23.8101 28.9611 24.0732 29.4167 24.0732C30.3278 24.0732 30.7183 23.4813 30.7833 23.4813L30.7183 24.0074H31.8897L32.4103 20.3899C32.4103 18.8771 31.1087 18.8114 30.5881 18.8114L28.8961 20.1268ZM31.5643 21.6396C31.5643 21.8369 30.7833 22.8893 30.0024 22.8893C29.6119 22.8893 29.4818 22.5604 29.4818 22.3631C29.4818 22.0342 29.677 21.5738 30.6532 21.5738C30.9135 21.6396 31.5643 21.6396 31.5643 21.6396Z" fill="#DCE5E5"/>
<path d="M32.1489 23.9417H33.5156C33.9061 21.7711 33.9711 19.9953 34.8823 20.3241C35.0124 19.4691 35.2077 19.1402 35.3378 18.8114C35.3378 18.8114 35.2727 18.8114 35.0775 18.8114C34.4918 18.8114 34.0362 19.6006 34.0362 19.6006L34.1664 18.8771" fill="#DCE5E5"/>
</g>
<defs>
<clipPath id="clip0_801_18">
<rect width="41" height="41.4371" fill="white"/>
</clipPath>
</defs>
</svg>
