<svg width="26" height="26" viewBox="0 0 26 26" fill="none" xmlns="http://www.w3.org/2000/svg">
<path d="M19.5821 25.4917L12.8734 21.7807L6.16468 25.4917C5.81077 25.6895 5.37358 25.6634 5.04049 25.4344C4.7074 25.2002 4.53565 24.7994 4.60331 24.3987L5.89925 16.4615L0.42403 10.8509C0.148187 10.5646 0.0545045 10.1535 0.179414 9.77872C0.304324 9.40398 0.632213 9.12813 1.02776 9.07088L8.54317 7.92065L11.9157 0.732972C12.0875 0.363439 12.4622 0.124023 12.8734 0.124023C13.2845 0.124023 13.6593 0.363439 13.8362 0.732972L17.2088 7.92065L24.7242 9.07088C25.1198 9.13334 25.4424 9.40398 25.5726 9.77872C25.6975 10.1535 25.6038 10.5698 25.3279 10.8509L19.8527 16.4615L21.1487 24.3987C21.2163 24.7994 21.0446 25.2002 20.7115 25.4344C20.5241 25.5593 20.1077 25.7623 19.5821 25.4917ZM3.38023 10.8509L7.78851 15.3686C8.02271 15.608 8.12681 15.9463 8.07476 16.2742L7.04425 22.5823L12.3529 19.6468C12.6756 19.4698 13.0607 19.4698 13.3834 19.6468L18.6921 22.5823L17.6616 16.2742C17.6095 15.9411 17.7136 15.608 17.9478 15.3686L22.3561 10.8509L16.3136 9.92966C15.9649 9.87761 15.663 9.65381 15.5121 9.33112L12.8734 3.67883L10.2243 9.32591C10.0733 9.6434 9.77145 9.8724 9.42275 9.92445L3.38023 10.8509Z" fill="#BCBCBC"/>
</svg>
