<svg width="25" height="25" viewBox="0 0 25 25" fill="none" xmlns="http://www.w3.org/2000/svg">
<path d="M18.7937 24.3359L12.4998 20.8545L6.20584 24.3359C5.8738 24.5215 5.46365 24.4971 5.15115 24.2822C4.83865 24.0625 4.67752 23.6865 4.74099 23.3105L5.95681 15.8643L0.820093 10.6006C0.561304 10.332 0.473414 9.94629 0.590601 9.59473C0.707789 9.24316 1.01541 8.98438 1.3865 8.93066L8.43728 7.85156L11.6013 1.1084C11.7625 0.761719 12.114 0.537109 12.4998 0.537109C12.8855 0.537109 13.2371 0.761719 13.4031 1.1084L16.5672 7.85156L23.6179 8.93066C23.989 8.98926 24.2918 9.24316 24.4138 9.59473C24.531 9.94629 24.4431 10.3369 24.1843 10.6006L19.0476 15.8643L20.2635 23.3105C20.3269 23.6865 20.1658 24.0625 19.8533 24.2822C19.6775 24.3994 19.2869 24.5898 18.7937 24.3359ZM3.59353 10.6006L7.72927 14.8389C7.949 15.0635 8.04666 15.3809 7.99783 15.6885L7.03103 21.6064L12.0115 18.8525C12.3142 18.6865 12.6756 18.6865 12.9783 18.8525L17.9588 21.6064L16.992 15.6885C16.9431 15.376 17.0408 15.0635 17.2605 14.8389L21.3963 10.6006L15.7273 9.73633C15.4002 9.6875 15.117 9.47754 14.9754 9.1748L12.4998 3.87207L10.0144 9.16992C9.87283 9.46777 9.58962 9.68262 9.26248 9.73145L3.59353 10.6006Z" fill="#111111"/>
</svg>
