<svg width="41" height="41" viewBox="0 0 41 41" fill="none" xmlns="http://www.w3.org/2000/svg">
<path d="M16.4167 14.399L14.333 26.6268H17.6655L19.7509 14.399H16.4167Z" fill="white"/>
<path d="M11.5385 14.4127L8.27456 22.7518L7.92657 21.4926C7.28286 19.9755 5.45546 17.7967 3.31006 16.4236L6.29459 26.6208L9.82083 26.6148L15.069 14.4102L11.5385 14.4127Z" fill="white"/>
<path d="M6.66162 15.2878C6.46791 14.543 5.90649 14.321 5.20964 14.2944H0.0428565L0 14.5378C4.0208 15.5132 6.68134 17.8635 7.78532 20.6895L6.66162 15.2878Z" fill="white"/>
<path d="M26.5052 16.7432C27.5954 16.7261 28.3857 16.9644 28.9994 17.2112L29.3003 17.3527L29.7511 14.7024C29.0911 14.4547 28.0566 14.189 26.7657 14.189C23.4726 14.189 21.1515 15.8475 21.1335 18.2244C21.1121 19.9806 22.7869 20.9612 24.0521 21.5466C25.3506 22.1466 25.786 22.528 25.78 23.0637C25.7698 23.8823 24.7446 24.2577 23.7872 24.2577C22.4527 24.2577 21.7438 24.0734 20.6493 23.6174L20.2198 23.422L19.751 26.1588C20.531 26.5008 21.9701 26.7948 23.4641 26.8102C26.9672 26.8102 29.2437 25.1714 29.2677 22.6317C29.2823 21.2423 28.3934 20.1821 26.4675 19.3121C25.3018 18.7446 24.5886 18.3675 24.5955 17.7949C24.5955 17.2867 25.2006 16.7432 26.5052 16.7432Z" fill="white"/>
<path d="M38.3037 14.4126H35.7289C34.9292 14.4126 34.3343 14.6303 33.9829 15.4274L29.0347 26.6336H32.5343C32.5343 26.6336 33.1052 25.1267 33.2346 24.7967C33.6177 24.7967 37.018 24.8019 37.5023 24.8019C37.6017 25.2287 37.9085 26.6336 37.9085 26.6336H41.0002L38.3037 14.4126ZM34.1937 22.2939C34.468 21.5919 35.5214 18.8765 35.5214 18.8765C35.5034 18.91 35.7931 18.1694 35.9654 17.7091L36.19 18.7634C36.19 18.7634 36.8286 21.6828 36.9623 22.2939H34.1937Z" fill="white"/>
</svg>
