<svg width="24" height="24" viewBox="0 0 24 24" fill="none" xmlns="http://www.w3.org/2000/svg">
<g clip-path="url(#clip0_801_143)">
<path d="M20.6709 3.69361C18.4056 1.32913 15.2713 -0.00527232 11.9968 0.000752737C5.37939 -0.00758193 0.00810003 5.35015 -0.000234641 11.9676C-0.00435177 15.2397 1.3299 18.3712 3.69263 20.6348C3.6995 20.6417 3.70207 20.652 3.70889 20.658C3.77828 20.7248 3.8537 20.7814 3.92399 20.8457C4.11679 21.017 4.30959 21.1944 4.51269 21.3598C4.62149 21.4455 4.73461 21.5312 4.84602 21.61C5.03797 21.7531 5.22992 21.8962 5.4304 22.0282C5.56667 22.1139 5.70721 22.1995 5.84684 22.2852C6.03191 22.3967 6.21617 22.5089 6.40727 22.6108C6.56924 22.6966 6.73458 22.7702 6.89911 22.8482C7.07906 22.9339 7.25645 23.0196 7.44067 23.0967C7.62488 23.1738 7.81 23.2338 7.99678 23.3006C8.18356 23.3674 8.34468 23.4292 8.52377 23.484C8.72601 23.5448 8.93337 23.5919 9.13903 23.6425C9.31039 23.6845 9.47663 23.7325 9.65317 23.7668C9.88965 23.8139 10.1296 23.8439 10.3695 23.8765C10.5178 23.8971 10.6626 23.9262 10.8125 23.9407C11.205 23.9793 11.6009 24.0007 12.0002 24.0007C12.3995 24.0007 12.7954 23.9793 13.1878 23.9407C13.3378 23.9262 13.4826 23.8971 13.6308 23.8765C13.8708 23.8439 14.1107 23.8139 14.3472 23.7668C14.5186 23.7325 14.69 23.6811 14.8613 23.6425C15.067 23.5919 15.2744 23.5448 15.4766 23.484C15.6557 23.4292 15.8288 23.3623 16.0036 23.3006C16.1784 23.2389 16.3772 23.1721 16.5597 23.0967C16.7422 23.0213 16.9213 22.933 17.1012 22.8482C17.2658 22.7702 17.4312 22.6965 17.5931 22.6108C17.7842 22.5089 17.9684 22.3966 18.1535 22.2852C18.2932 22.1995 18.4337 22.1216 18.57 22.0282C18.7705 21.8962 18.9624 21.7531 19.1543 21.61C19.2658 21.5243 19.3788 21.4472 19.4877 21.3598C19.6908 21.197 19.8836 21.0239 20.0764 20.8457C20.1466 20.7814 20.222 20.7249 20.2915 20.658C20.2983 20.652 20.3009 20.6417 20.3077 20.6348C25.0863 16.0569 25.2488 8.47204 20.6709 3.69361ZM18.7449 19.7376C18.589 19.8748 18.4279 20.005 18.2651 20.131C18.1691 20.2047 18.0731 20.2775 17.9746 20.3478C17.8195 20.4601 17.6618 20.5663 17.5016 20.6683C17.385 20.7428 17.2659 20.8148 17.1459 20.8851C16.9951 20.9708 16.8417 21.0564 16.6866 21.1421C16.5495 21.2124 16.4098 21.2784 16.2693 21.3435C16.1289 21.4086 15.9737 21.478 15.822 21.5389C15.6703 21.5997 15.5093 21.6571 15.3507 21.7103C15.2059 21.76 15.0611 21.8114 14.9146 21.8551C14.7432 21.9065 14.5641 21.9484 14.3867 21.9913C14.2479 22.0239 14.1108 22.0607 13.9703 22.0882C13.7672 22.1276 13.5598 22.155 13.3516 22.1833C13.2334 22.1987 13.116 22.2201 12.9968 22.2321C12.6678 22.2638 12.3344 22.2827 11.9977 22.2827C11.6609 22.2827 11.3276 22.2639 10.9985 22.2321C10.8794 22.2201 10.762 22.1987 10.6437 22.1833C10.4355 22.155 10.2282 22.1276 10.0251 22.0882C9.88453 22.0608 9.74741 22.0239 9.60863 21.9913C9.43125 21.9485 9.25471 21.9056 9.08079 21.8551C8.93428 21.8114 8.78943 21.76 8.64462 21.7103C8.48611 21.6554 8.32756 21.5997 8.17331 21.5389C8.01907 21.478 7.87342 21.4112 7.726 21.3435C7.57859 21.2758 7.44579 21.2124 7.30872 21.1421C7.15362 21.0616 7.00023 20.9768 6.84941 20.8851C6.72946 20.8148 6.61031 20.7428 6.49378 20.6683C6.33356 20.5663 6.17586 20.4601 6.02076 20.3478C5.9222 20.2775 5.82625 20.2047 5.73025 20.131C5.56742 20.005 5.40635 19.8739 5.25041 19.7376C5.2127 19.7094 5.17841 19.6734 5.1416 19.6408C5.17991 16.7258 7.05255 14.1519 9.81429 13.2183C11.1952 13.8752 12.7985 13.8752 14.1793 13.2183C16.941 14.1519 18.8137 16.7258 18.852 19.6408C18.816 19.6734 18.7817 19.706 18.7449 19.7376ZM9.00874 6.87123C9.93655 5.22117 12.0263 4.63568 13.6764 5.56349C15.3264 6.4913 15.9119 8.58104 14.9841 10.2311C14.6763 10.7786 14.2239 11.231 13.6764 11.5388C13.6721 11.5388 13.6669 11.5388 13.6618 11.544C13.4345 11.6704 13.1944 11.7722 12.9454 11.8473C12.9009 11.8602 12.8597 11.8773 12.8126 11.8884C12.7269 11.9107 12.6369 11.9262 12.5487 11.9416C12.3825 11.9706 12.2143 11.9875 12.0457 11.9921H11.948C11.7793 11.9875 11.6112 11.9706 11.445 11.9416C11.3593 11.9262 11.2684 11.9107 11.1811 11.8884C11.1356 11.8773 11.0954 11.8602 11.0483 11.8473C10.7993 11.7722 10.5591 11.6705 10.3319 11.544L10.3165 11.5388C8.66641 10.611 8.08093 8.52129 9.00874 6.87123ZM20.3722 17.9416C19.8223 15.3768 18.1333 13.2024 15.7843 12.0351C17.7046 9.94331 17.5655 6.69093 15.4737 4.77069C13.382 2.85046 10.1296 2.98953 8.20936 5.08128C6.40415 7.04776 6.40415 10.0686 8.20936 12.0351C5.86034 13.2025 4.17142 15.3768 3.62153 17.9416C0.335663 13.3132 1.42399 6.89744 6.05239 3.61157C10.6808 0.325704 17.0966 1.41403 20.3824 6.04243C21.6176 7.78232 22.2807 9.86353 22.2796 11.9973C22.2796 14.1292 21.6127 16.2077 20.3722 17.9416Z" fill="#111111"/>
</g>
<defs>
<clipPath id="clip0_801_143">
<rect width="24" height="24" fill="white"/>
</clipPath>
</defs>
</svg>
